<svg xmlns="http://www.w3.org/2000/svg" viewBox="0 0 163.04 30.13"><defs><style>.cls-1{fill:#4c4b4a;}.cls-2{fill:#71c494;}</style></defs><title>Asset 3</title><g id="Layer_2" data-name="Layer 2"><g id="Layer_4" data-name="Layer 4"><path class="cls-1" d="M103,18.39a3.52,3.52,0,0,1-2,2.29,5.45,5.45,0,0,1-2.37.53H91.86q-2.6,0-2.6-1.78a3.32,3.32,0,0,1,.19-1L96,0h6.22L95.64,18.39Z"/><path class="cls-1" d="M147.44,18.39a2.55,2.55,0,0,1-1.34,2,5.06,5.06,0,0,1-2.79.82H130q-3.85,0-3.85-2.36a3.25,3.25,0,0,1,0-.46,2.16,2.16,0,0,1,1.13-1.63,3.55,3.55,0,0,1,1.93-.49q1.9.05,5.15,2.09a3.75,3.75,0,0,0,.93-2.36,11.46,11.46,0,0,0-.76-2.72l-2,1.81H129l4.68-4.32a5.55,5.55,0,0,1-.44-.9A4.75,4.75,0,0,1,133,8.38l4.32-4.61q2.92.49,2.92,2.65a4,4,0,0,1-.76,2.34q.65,1.72,1.32,3.45a11.07,11.07,0,0,1,.81,3.59,3.35,3.35,0,0,1-1.2,2.58Z"/><path class="cls-1" d="M163,18.39q-.83,2.81-4.39,2.81h-9q-2.6,0-2.6-1.83a2.87,2.87,0,0,1,.19-1l2.23-6.33h-2.88l1.11-2.81a11.93,11.93,0,0,0,4.57-2,16.72,16.72,0,0,0,3.6-5h3.43l-2.48,7h4.54A4.29,4.29,0,0,1,157,12.06h-1.16l-2.2,6.33Z"/><path class="cls-2" d="M23.5,18.39a3.86,3.86,0,0,1-3.88,2.81H15.33a21,21,0,0,1-3.22,6.15,7.37,7.37,0,0,1-5.85,2.78,4.41,4.41,0,0,1-3.39-1.28,4.11,4.11,0,0,1-1-2.9,6.45,6.45,0,0,1,.61-2.72A5,5,0,0,1,4,21.2H2.69a2.71,2.71,0,0,1-1.92-.71A2.34,2.34,0,0,1,0,18.7a3.06,3.06,0,0,1,.18-1L3.23,9.25H9.62L6.33,18.39H9.9l3.23-9.14h6.35l-3.23,9.14ZM8.79,21.67A2.76,2.76,0,0,0,6.64,23a4.31,4.31,0,0,0-1,2.61,2.16,2.16,0,0,0,1,1.86Z"/><path class="cls-2" d="M53.35,9.25q-.7,2.81-4.22,2.81h-11a2.75,2.75,0,0,1,.95,1.42,4.22,4.22,0,0,1,.3,1.78,6,6,0,0,1-2.58,4.61A9.82,9.82,0,0,1,31,21.48a10.35,10.35,0,0,1-6.38-1.63,4.61,4.61,0,0,1-2-3.88,5.2,5.2,0,0,1,.09-.95,6.14,6.14,0,0,1,2.64-4.17,10.72,10.72,0,0,1,6.19-1.6ZM34.19,12.06h-4l-1.58,4.5a2,2,0,0,0-.12.67q0,1.51,2.81,1.51l.58,0Z"/><path class="cls-2" d="M67.68,18.39a3.48,3.48,0,0,1-1.62,2.21,4,4,0,0,1-2.09.6H56.62Q54,21.2,54,19.55a4.57,4.57,0,0,1-3.71,1.65H47.23A3.12,3.12,0,0,1,45,20.46a2.35,2.35,0,0,1-.74-1.81,3.75,3.75,0,0,1,.25-1.3l3-8.1h6.38l-3.29,9.14h3.57l3.27-9.14h6.31l-3.2,9.14Z"/><path class="cls-2" d="M88.19,18.39a2.43,2.43,0,0,1-1.35,2.07,4.68,4.68,0,0,1-2.5.74H77.61q-2.67,0-2.67-2.21a3.67,3.67,0,0,1,.23-1.21l2-5.71H73.41l-2,5a2,2,0,0,1-2.13,1.28H67.46l2.3-6.33A3.11,3.11,0,0,1,67.32,9a3.46,3.46,0,0,1,1.88-3.13A7.26,7.26,0,0,1,72.93,5h2.85L74.3,9.25H84l-3.2,9.14Z"/><polygon class="cls-1" points="113.78 15.27 120.12 15.27 120.64 13.79 114.3 13.79 113.78 15.27"/><polygon class="cls-1" points="105.49 10.68 111.88 10.68 112.39 9.25 106.01 9.25 105.49 10.68"/><path class="cls-1" d="M122.72,18.39H102.81a2.86,2.86,0,0,0,0,.32,2.34,2.34,0,0,0,.76,1.78,2.71,2.71,0,0,0,1.92.71h1.34a5,5,0,0,0-1.59,2,6.45,6.45,0,0,0-.61,2.72,4.11,4.11,0,0,0,1,2.9A4.41,4.41,0,0,0,109,30.13a7.37,7.37,0,0,0,5.85-2.78,21,21,0,0,0,3.22-6.15h4.29a3.86,3.86,0,0,0,3.88-2.81Zm-13.28,9.07a2.16,2.16,0,0,1-1-1.86,4.31,4.31,0,0,1,1-2.61,2.76,2.76,0,0,1,2.15-1.31Z"/><polygon class="cls-1" points="114.59 12.98 120.93 12.98 121.46 11.5 115.11 11.5 114.59 12.98"/><polygon class="cls-1" points="111.05 12.98 111.58 11.5 105.2 11.5 104.66 12.98 111.05 12.98"/><polygon class="cls-1" points="110.22 15.27 110.76 13.79 104.37 13.79 103.83 15.27 110.22 15.27"/><polygon class="cls-1" points="109.93 16.09 103.54 16.09 103 17.57 109.4 17.57 109.93 16.09"/><polygon class="cls-1" points="119.83 16.09 113.49 16.09 112.96 17.57 119.31 17.57 119.83 16.09"/><polygon class="cls-1" points="115.91 9.25 115.4 10.68 121.75 10.68 122.25 9.25 115.91 9.25"/></g></g></svg>