<svg xmlns="http://www.w3.org/2000/svg" viewBox="0 0 163.02 41.28"><defs><style>.cls-1{fill:#4c4b4a;}.cls-2{font-size:36px;fill:#71c494;font-family:Magneto-Bold, Magneto;font-weight:700;}</style></defs><title>Asset 2</title><g id="Layer_2" data-name="Layer 2"><g id="Layer_4" data-name="Layer 4"><path class="cls-1" d="M103,27.55a3.52,3.52,0,0,1-2,2.29,5.45,5.45,0,0,1-2.37.53H91.84q-2.6,0-2.6-1.78a3.32,3.32,0,0,1,.19-1L96,9.17h6.22L95.62,27.55Z"/><path class="cls-1" d="M147.42,27.55a2.55,2.55,0,0,1-1.34,2,5.06,5.06,0,0,1-2.79.82H129.93q-3.85,0-3.85-2.36a3.25,3.25,0,0,1,0-.46,2.16,2.16,0,0,1,1.13-1.63,3.55,3.55,0,0,1,1.93-.49q1.9.05,5.15,2.09a3.75,3.75,0,0,0,.93-2.36,11.46,11.46,0,0,0-.76-2.72l-2,1.81H129l4.68-4.32a5.55,5.55,0,0,1-.44-.9,4.75,4.75,0,0,1-.25-1.48l4.32-4.61q2.92.49,2.92,2.65a4,4,0,0,1-.76,2.34q.65,1.72,1.32,3.45a11.07,11.07,0,0,1,.81,3.59,3.35,3.35,0,0,1-1.2,2.58Z"/><path class="cls-1" d="M163,27.55q-.83,2.81-4.39,2.81h-9q-2.6,0-2.6-1.83a2.87,2.87,0,0,1,.19-1l2.23-6.33H146.6l1.11-2.81a11.93,11.93,0,0,0,4.57-2,16.72,16.72,0,0,0,3.6-5h3.43l-2.48,7h4.54a4.29,4.29,0,0,1-4.43,2.81h-1.16l-2.2,6.33Z"/><text class="cls-2" transform="translate(0.09 30.37)">your</text><polygon class="cls-1" points="113.76 24.44 120.1 24.44 120.63 22.96 114.28 22.96 113.76 24.44"/><polygon class="cls-1" points="105.47 19.85 111.86 19.85 112.37 18.41 105.99 18.41 105.47 19.85"/><path class="cls-1" d="M122.7,27.55H102.79a2.86,2.86,0,0,0,0,.32,2.34,2.34,0,0,0,.76,1.78,2.71,2.71,0,0,0,1.92.71h1.34a5,5,0,0,0-1.59,2,6.45,6.45,0,0,0-.61,2.72,4.11,4.11,0,0,0,1,2.9A4.41,4.41,0,0,0,109,39.29a7.37,7.37,0,0,0,5.85-2.78,21,21,0,0,0,3.22-6.15h4.29a3.86,3.86,0,0,0,3.88-2.81Zm-13.28,9.07a2.16,2.16,0,0,1-1-1.86,4.31,4.31,0,0,1,1-2.61,2.76,2.76,0,0,1,2.15-1.31Z"/><polygon class="cls-1" points="114.57 22.14 120.92 22.14 121.44 20.66 115.09 20.66 114.57 22.14"/><polygon class="cls-1" points="111.03 22.14 111.56 20.66 105.18 20.66 104.64 22.14 111.03 22.14"/><polygon class="cls-1" points="110.21 24.44 110.74 22.96 104.35 22.96 103.81 24.44 110.21 24.44"/><polygon class="cls-1" points="109.91 25.26 103.52 25.26 102.98 26.73 109.38 26.73 109.91 25.26"/><polygon class="cls-1" points="119.81 25.26 113.47 25.26 112.94 26.73 119.29 26.73 119.81 25.26"/><polygon class="cls-1" points="115.89 18.41 115.38 19.85 121.73 19.85 122.23 18.41 115.89 18.41"/></g></g></svg>